HIERARCHY
ROOT SpineBase
{
  OFFSET 0.000000 0.000000 0.000000
  CHANNELS 6 Xposition Yposition Zposition Zrotation Xrotation Yrotation
  JOINT SpineMid
  {
    OFFSET 0.000000 27.964677 0.000000
    CHANNELS 3 Zrotation Xrotation Yrotation
    JOINT SpineShoulder
    {
      OFFSET 0.054116 20.734275 -0.622295
      CHANNELS 3 Zrotation Xrotation Yrotation
      JOINT Neck
      {
        OFFSET 0.040459 6.852535 -0.481772
        CHANNELS 3 Zrotation Xrotation Yrotation
        JOINT Head
        {
          OFFSET 4.804070 12.056325 -0.046333
          CHANNELS 3 Zrotation Xrotation Yrotation
          End Site
          {
            OFFSET 0 0 0
          }
        }
      }
      JOINT ShoulderLeft
      {
        OFFSET -11.440584 -2.742277 -10.875048
        CHANNELS 3 Zrotation Xrotation Yrotation
        JOINT ElbowLeft
        {
          OFFSET -4.962017 -20.923680 -3.776611
          CHANNELS 3 Zrotation Xrotation Yrotation
          JOINT WristLeft
          {
            OFFSET 2.942596 -18.533709 -3.938590
            CHANNELS 3 Zrotation Xrotation Yrotation
            JOINT HandLeft
            {
              OFFSET 1.426383 -6.590657 -0.387259
              CHANNELS 3 Zrotation Xrotation Yrotation
              JOINT HandTipLeft
              {
                OFFSET 1.616812 -5.504106 -3.032741
                CHANNELS 3 Zrotation Xrotation Yrotation
                End Site
                {
                  OFFSET 0 0 0
                }
              }
              JOINT ThumbLeft
              {
                OFFSET -1.748124 0.876073 -1.529441
                CHANNELS 3 Zrotation Xrotation Yrotation
                End Site
                {
                  OFFSET 0 0 0
                }
              }
            }
          }
        }
      }
      JOINT ShoulderRight
      {
        OFFSET 12.939302 -6.172429 9.005301
        CHANNELS 3 Zrotation Xrotation Yrotation
        JOINT ElbowRight
        {
          OFFSET 1.209115 -25.200816 3.929229
          CHANNELS 3 Zrotation Xrotation Yrotation
          JOINT WristRight
          {
            OFFSET -0.024919 -18.571197 -3.707192
            CHANNELS 3 Zrotation Xrotation Yrotation
            JOINT HandRight
            {
              OFFSET -1.300963 -5.204557 -1.794961
              CHANNELS 3 Zrotation Xrotation Yrotation
              JOINT HandTipRight
              {
                OFFSET -0.200721 -5.712994 -1.801737
                CHANNELS 3 Zrotation Xrotation Yrotation
                End Site
                {
                  OFFSET 0 0 0
                }
              }
              JOINT ThumbRight
              {
                OFFSET 1.819777 -2.102494 -1.463171
                CHANNELS 3 Zrotation Xrotation Yrotation
                End Site
                {
                  OFFSET 0 0 0
                }
              }
            }
          }
        }
      }
    }
  }
  JOINT HipLeft
  {
    OFFSET -4.064605 1.444667 -7.024983
    CHANNELS 3 Zrotation Xrotation Yrotation
    JOINT KneeLeft
    {
      OFFSET -11.115017 -34.895392 -4.229031
      CHANNELS 3 Zrotation Xrotation Yrotation
      JOINT AnkleLeft
      {
        OFFSET -6.609221 -29.788648 -0.189041
        CHANNELS 3 Zrotation Xrotation Yrotation
        JOINT FootLeft
        {
          OFFSET 1.474543 -6.633350 -5.282492
          CHANNELS 3 Zrotation Xrotation Yrotation
          End Site
          {
            OFFSET 0 0 0
          }
        }
      }
    }
  }
  JOINT HipRight
  {
    OFFSET 4.432983 -0.423967 0.702340
    CHANNELS 3 Zrotation Xrotation Yrotation
    JOINT KneeRight
    {
      OFFSET -4.858265 -37.057978 6.834007
      CHANNELS 3 Zrotation Xrotation Yrotation
      JOINT AnkleRight
      {
        OFFSET -5.588722 -28.724017 6.349057
        CHANNELS 3 Zrotation Xrotation Yrotation
        JOINT FootRight
        {
          OFFSET 3.127825 -4.081904 -6.389274
          CHANNELS 3 Zrotation Xrotation Yrotation
          End Site
          {
            OFFSET 0 0 0
          }
        }
      }
    }
  }
}
MOTION
Frames: 9
Frame Time: 0.033333
-20.414406 72.526152 357.006283 -0.000000 0.000000 -42.281968 0.000000 0.000000 42.281968 -0.000000 0.000000 0.000000 -0.000000 0.000000 0.000000 0.000000 0.000000 0.000000 -0.000000 0.000000 0.000000 -0.000000 0.000000 0.000000 -0.000000 0.000000 0.000000 -0.000000 0.000000 0.000000 0.000000 0.000000 0.000000 0.000000 0.000000 0.000000 -0.000000 0.000000 0.000000 -0.000000 0.000000 0.000000 -0.000000 0.000000 0.000000 -0.000000 0.000000 0.000000 0.000000 0.000000 0.000000 0.000000 0.000000 0.000000 0.000000 0.000000 42.281968 -0.000000 0.000000 0.000000 -0.000000 0.000000 0.000000 0.000000 0.000000 0.000000 0.000000 0.000000 42.281968 -0.000000 0.000000 0.000000 -0.000000 0.000000 0.000000 0.000000 0.000000 0.000000
-20.333898 72.548037 356.748252 0.021284 0.241725 -41.243695 0.143357 -0.195788 41.243895 -0.000000 0.000000 0.000000 -0.000000 0.000000 0.000000 0.000000 0.000000 0.000000 -0.000000 0.000000 0.000000 -0.000000 0.000000 0.000000 -0.127759 1.586906 0.352541 0.118039 -1.587659 -0.349137 0.000000 0.000000 0.000000 0.000000 0.000000 0.000000 -0.000000 0.000000 0.000000 -0.000000 0.000000 0.000000 1.395184 3.911359 -1.493798 -1.623437 -2.788965 1.435444 0.000000 0.000000 0.000000 0.000000 0.000000 0.000000 0.143357 -0.195788 41.243895 -0.000000 0.000000 0.000000 0.171884 1.871695 0.272772 0.000000 0.000000 0.000000 0.143357 -0.195788 41.243895 -0.000000 0.000000 0.000000 -1.630210 -6.885588 -3.160052 0.000000 0.000000 0.000000
-20.273026 72.566303 356.526241 0.035212 0.439101 -40.330691 0.257345 -0.357525 40.331359 -0.000000 0.000000 0.000000 -0.000000 0.000000 0.000000 0.000000 0.000000 0.000000 -0.000000 0.000000 0.000000 -0.000000 0.000000 0.000000 -0.218839 2.738880 0.610354 -0.737593 -3.229974 -0.286357 0.000000 0.000000 0.000000 0.000000 0.000000 0.000000 -0.065704 -1.418692 -0.078979 -0.740295 2.034563 0.260851 3.485449 6.443093 -2.937260 -2.938057 -5.180758 2.523270 0.000000 0.000000 0.000000 0.000000 0.000000 0.000000 0.257345 -0.357525 40.331359 -0.000000 0.000000 0.000000 0.330531 3.398261 0.471169 0.000000 0.000000 0.000000 0.257345 -0.357525 40.331359 -0.000000 0.000000 0.000000 -3.367465 -12.754589 -6.122216 0.000000 0.000000 0.000000
-20.231792 72.580949 356.340251 0.041775 0.592062 -39.548242 0.344778 -0.483129 39.549480 -0.000000 0.000000 0.000000 -0.000000 0.000000 0.000000 0.000000 0.000000 0.000000 -0.000000 0.000000 0.000000 0.501842 0.898827 0.032050 -0.776630 2.653586 0.748470 -1.078328 -4.268644 -0.365267 0.000000 0.000000 0.000000 0.000000 0.000000 0.000000 -0.088004 -1.886098 -0.105405 -1.004911 2.748742 0.362079 4.833552 8.474515 -4.006692 -3.933526 -6.973829 3.282124 0.000000 0.000000 0.000000 0.000000 0.000000 0.000000 0.344778 -0.483129 39.549480 -0.000000 0.000000 0.000000 0.481117 4.586404 0.598025 0.000000 0.000000 0.000000 0.828225 -1.430700 39.650967 0.232422 1.038040 -0.095518 -4.842491 -16.955565 -8.463587 0.000000 0.000000 0.000000
-20.210194 72.591976 356.190281 0.040965 0.700556 -38.900733 0.408063 -0.570918 38.902515 -0.000000 0.000000 0.000000 -0.000000 0.000000 0.000000 0.000000 0.000000 0.000000 -0.000000 0.000000 0.000000 0.580810 1.063697 0.039957 -0.882377 3.023776 0.855745 -1.388845 -5.017323 -0.410614 0.000000 0.000000 0.000000 0.000000 0.000000 0.000000 -0.102916 -2.191586 -0.122817 -1.203560 3.264490 0.438051 5.805921 9.603132 -4.706319 -4.605930 -8.035763 3.734373 0.000000 0.000000 0.000000 0.000000 0.000000 0.000000 0.408063 -0.570918 38.902515 -0.000000 0.000000 0.000000 0.627493 5.442210 0.655521 0.000000 0.000000 0.000000 1.003578 -1.728619 39.032671 0.266479 1.274266 -0.121168 -5.675226 -19.116401 -9.785834 0.000000 0.000000 0.000000
-20.208232 72.599383 356.076331 0.032777 0.764542 -38.391709 0.449134 -0.619585 38.393919 -0.000000 0.000000 0.000000 -0.000000 0.000000 0.000000 0.000000 0.000000 0.000000 -0.000000 0.000000 0.000000 0.616162 1.162046 0.047172 -0.915941 3.219264 0.910367 -1.665352 -5.513897 -0.424845 0.000000 0.000000 0.000000 0.000000 0.000000 0.000000 -0.110282 -2.335025 -0.131080 -1.338323 3.584068 0.485973 6.347406 9.791039 -4.984584 -4.951220 -8.288846 3.896728 0.000000 0.000000 0.000000 0.000000 0.000000 0.000000 0.449134 -0.619585 38.393919 -0.000000 0.000000 0.000000 0.772270 5.969931 0.645225 0.000000 0.000000 0.000000 1.138476 -1.932176 38.549125 0.081141 0.659073 -0.028055 -5.438259 -18.281751 -9.878744 0.000000 0.000000 0.000000
-20.241686 72.607956 355.993272 0.008201 0.752540 -38.226338 0.459223 -0.596243 38.228674 -0.000000 0.000000 0.000000 -0.000000 0.000000 0.000000 0.000000 0.000000 0.000000 -0.000000 0.000000 0.000000 0.538717 1.155976 0.063439 -1.123317 2.732843 0.809154 -1.243167 -5.389400 -0.481758 0.000000 0.000000 0.000000 0.000000 0.000000 0.000000 -0.011535 -2.206577 -0.107581 -1.564290 3.765702 0.498716 5.497406 6.262989 -3.711127 -5.008964 -5.534966 3.184152 0.000000 0.000000 0.000000 0.000000 0.000000 0.000000 0.459223 -0.596243 38.228674 -0.000000 0.000000 0.000000 0.953775 6.104171 0.524533 0.000000 0.000000 0.000000 1.220685 -1.928692 38.402206 0.005398 0.577178 -0.022245 -7.646826 -20.796366 -9.331735 0.000000 0.000000 0.000000
-20.293337 72.619866 355.978168 -0.037095 0.708088 -38.246168 0.467483 -0.533133 38.248572 -0.000000 0.000000 0.000000 -0.000000 0.000000 0.000000 0.000000 0.000000 0.000000 -0.000000 0.000000 0.000000 0.429894 1.063552 0.073330 -1.088300 2.178243 0.665109 -1.334426 -5.974485 -0.631171 0.000000 0.000000 0.000000 0.000000 0.000000 0.000000 -0.020377 -1.751347 -0.087316 -1.563509 3.228908 0.467415 5.464888 4.217415 -3.126927 -5.581024 -4.885778 2.938416 0.000000 0.000000 0.000000 0.000000 0.000000 0.000000 0.467483 -0.533133 38.248572 -0.000000 0.000000 0.000000 1.103244 5.750499 0.331390 0.000000 0.000000 0.000000 1.264381 -1.820095 38.430099 -0.010860 0.567647 -0.022831 -1.443939 -8.989818 -6.262500 0.000000 0.000000 0.000000
-20.357348 72.606440 356.043963 -0.071002 0.588356 -38.186652 0.419553 -0.418548 38.188549 -0.000000 0.000000 0.000000 -0.000000 0.000000 0.000000 0.000000 0.000000 0.000000 -0.000000 0.000000 0.000000 0.365255 0.930609 0.067020 -0.865342 1.952594 0.584574 -1.694762 -5.470845 -0.386391 0.000000 0.000000 0.000000 0.000000 0.000000 0.000000 -0.048645 -1.424798 -0.076407 -1.531471 3.057640 0.448117 4.950030 3.267531 -2.710851 -4.496018 -5.143232 2.537142 0.000000 0.000000 0.000000 0.000000 0.000000 0.000000 0.419553 -0.418548 38.188549 -0.000000 0.000000 0.000000 1.142278 5.542068 0.257449 0.000000 0.000000 0.000000 1.235876 -1.632519 38.373852 0.031401 0.506341 -0.003294 0.289344 -3.004759 -3.725899 0.000000 0.000000 0.000000
